<svg xmlns="http://www.w3.org/2000/svg" width="500" height="500" style="width:100%;height:100%;transform:translate3d(0,0,0);content-visibility:visible" viewBox="0 0 500 500"><defs><clipPath id="g"><path d="M0 0h500v500H0z"/></clipPath><clipPath id="m"><path d="M0 0h500v500H0z"/></clipPath><clipPath id="k"><path d="M0 0h500v500H0z"/></clipPath><clipPath id="h"><path d="M0 0h500v500H0z"/></clipPath><filter id="a" width="100%" height="100%" x="0%" y="0%" filterUnits="objectBoundingBox"><feComponentTransfer in="SourceGraphic"><feFuncA tableValues="1.0 0.0" type="table"/></feComponentTransfer></filter><filter id="c" width="100%" height="100%" x="0%" y="0%" filterUnits="objectBoundingBox"><feComponentTransfer in="SourceGraphic"><feFuncA tableValues="1.0 0.0" type="table"/></feComponentTransfer></filter><filter id="e" width="100%" height="100%" x="0%" y="0%" filterUnits="objectBoundingBox"><feComponentTransfer in="SourceGraphic"><feFuncA tableValues="1.0 0.0" type="table"/></feComponentTransfer></filter><path id="d" fill="red" d="M403.049 394.73H95.888l.46-14.407c0-53.962 43.75-97.712 97.712-97.712h111.737c53.961 0 97.712 43.75 97.712 97.712l-.46 14.407zm-82.63-221.597c0 39.06-31.671 70.731-70.731 70.731-39.06 0-70.732-31.671-70.732-70.731 0-39.06 31.665-70.732 70.732-70.732s70.732 31.672 70.732 70.732z" style="display:block"/><path id="f" fill="red" d="M403.049 394.73H95.888l.46-14.407c0-53.962 43.75-97.712 97.712-97.712h111.737c53.961 0 97.712 43.75 97.712 97.712l-.46 14.407zm-82.63-221.597c0 39.06-31.671 70.731-70.731 70.731-39.06 0-70.732-31.671-70.732-70.731 0-39.06 31.665-70.732 70.732-70.732s70.732 31.672 70.732 70.732z" style="display:block"/><path id="b" fill="red" d="M18.046-3.227c0 5.604-4.544 10.148-10.148 10.148S-2.25 2.377-2.25-3.227 2.293-13.375 7.898-13.375c5.605 0 10.148 4.544 10.148 10.148z" style="display:block" transform="matrix(6.97 0 0 6.97 194.878 195.484)"/><mask id="l" mask-type="alpha"><g filter="url(#a)"><path fill="#fff" d="M0 0h500v500H0z" opacity="0"/><use xmlns:ns1="http://www.w3.org/1999/xlink" ns1:href="#b"/></g></mask><mask id="j" mask-type="alpha"><g filter="url(#c)"><path fill="#fff" d="M0 0h500v500H0z" opacity="0"/><use xmlns:ns2="http://www.w3.org/1999/xlink" ns2:href="#d"/></g></mask><mask id="i" mask-type="alpha"><g filter="url(#e)"><path fill="#fff" d="M0 0h500v500H0z" opacity="0"/><use xmlns:ns3="http://www.w3.org/1999/xlink" ns3:href="#f"/></g></mask></defs><g clip-path="url(#g)"><g clip-path="url(#h)" opacity="0" style="display:block"><g mask="url(#i)" style="display:block"><path fill="none" stroke="#104791" stroke-linecap="round" stroke-linejoin="round" stroke-width="8.538" d="M617.475 360.632H507.816l.349-10.685c0-40.029 32.445-72.481 72.474-72.481h82.887c40.029 0 72.474 32.452 72.474 72.48l-.342 10.686s0 0 0 0H617.475m16.185-113.653a52.532 52.532 0 0 1-12.651 1.54c-28.863 0-52.261-23.398-52.261-52.26 0-28.863 23.398-52.262 52.26-52.262 28.864 0 52.262 23.399 52.262 52.261 0 0 0 0 0 0 0 24.5-16.86 45.061-39.61 50.721"/></g><g mask="url(#j)" style="display:block"><path fill="none" stroke="#104791" stroke-linecap="round" stroke-linejoin="round" stroke-width="8.538" d="M-162.525 360.632h-109.659l.349-10.685c0-40.029 32.445-72.481 72.474-72.481h82.887c40.029 0 72.474 32.452 72.474 72.48l-.342 10.686s0 0 0 0h-118.183m16.185-113.653a52.532 52.532 0 0 1-12.651 1.54c-28.863 0-52.261-23.398-52.261-52.26 0-28.863 23.398-52.262 52.26-52.262 28.864 0 52.262 23.399 52.262 52.261 0 0 0 0 0 0 0 24.5-16.86 45.061-39.61 50.721"/></g><g fill="none" stroke-linecap="round" stroke-linejoin="round" stroke-width="8.538" opacity="1" style="display:block"><path stroke="#11095C" d="M243.722 394.73H95.888l.46-14.407c0-53.962 43.75-97.712 97.712-97.712h111.737c53.961 0 97.712 43.75 97.712 97.712l-.46 14.407s0 0 0 0H243.722" opacity="1"/><path stroke="#121331" d="M266.806 241.78a71.03 71.03 0 0 1-17.118 2.084c-39.06 0-70.732-31.671-70.732-70.731 0-39.06 31.665-70.732 70.732-70.732s70.732 31.672 70.732 70.732c0 0 0 0 0 0 0 33.156-22.82 60.987-53.614 68.647" opacity="1"/></g></g><g clip-path="url(#k)" opacity="0" style="display:block"><g mask="url(#l)" style="display:block"><path fill="none" stroke="#11095C" stroke-linecap="round" stroke-linejoin="round" stroke-width="8.538" d="M243.717 394.73H95.883l.46-14.407c0-53.962 43.75-97.712 97.712-97.712h111.737c53.961 0 97.712 43.75 97.712 97.712l-.46 14.407s0 0 0 0H243.717"/></g><path fill="none" stroke="#104791" stroke-linecap="round" stroke-linejoin="round" stroke-width="1.225" d="M15.673-9.749a10.107 10.107 0 0 1 2.373 6.522s0 0 0 0c0 5.604-4.544 10.148-10.148 10.148S-2.25 2.377-2.25-3.227 2.293-13.375 7.898-13.375c3.121 0 5.913 1.409 7.775 3.626" opacity="1" style="display:block" transform="matrix(6.97 0 0 6.97 194.878 195.484)"/></g><g fill="none" stroke-linecap="round" stroke-linejoin="round" stroke-width="1.225" clip-path="url(#m)" style="display:block"><path stroke="#11095C" d="M8.677 31.836h-21.21l.066-2.067c0-7.742 6.277-14.019 14.019-14.019h16.031c7.742 0 14.019 6.277 14.019 14.019l-.066 2.067s0 0 0 0H8.677" style="display:block" transform="matrix(6.97 0 0 6.97 183.238 172.833)"/><path stroke="#104791" d="M15.673-9.749a10.107 10.107 0 0 1 2.373 6.522s0 0 0 0c0 5.604-4.544 10.148-10.148 10.148S-2.25 2.377-2.25-3.227 2.293-13.375 7.898-13.375c3.121 0 5.913 1.409 7.775 3.626" style="display:block" transform="matrix(6.97 0 0 6.97 194.878 195.484)"/></g><g class="com" style="display:none"><path/><path/><path/><path/><path/><path/><path/><path/><path/><path/><path/><path/></g></g></svg>